<?xml version="1.0" encoding="UTF-8"?>
<svg width="25px" height="24px" viewBox="0 0 25 24" version="1.1" xmlns="http://www.w3.org/2000/svg" xmlns:xlink="http://www.w3.org/1999/xlink">
    <!-- Generator: sketchtool 56.3 (101010) - https://sketch.com -->
    <title>7F9B14D9-3F23-484E-B443-D3390F3610CC</title>
    <desc>Created with sketchtool.</desc>
    <g id="iPhone-8" stroke="none" stroke-width="1" fill="none" fill-rule="evenodd">
        <g id="Home" transform="translate(-73.000000, -3722.000000)" fill="#16313D">
            <g id="Icon-/-Social-/-Instagram" transform="translate(73.000000, 3722.000000)">
                <path d="M12.2337366,2.15052632 C15.5062611,2.15052632 15.8885654,2.15052632 17.1731077,2.22519737 C17.9509752,2.22785759 18.7222784,2.36435228 19.4516412,2.62842105 C20.5178936,3.03361862 21.3611413,3.85712749 21.7760511,4.89842105 C22.0464494,5.61071083 22.1862157,6.36395931 22.1889397,7.12361842 C22.1889397,8.37809211 22.2654006,8.75144737 22.2654006,11.9473684 C22.2654006,15.1432895 22.2654006,15.5166447 22.1889397,16.7711184 C22.1862157,17.5307775 22.0464494,18.284026 21.7760511,18.9963158 C21.3643965,20.0396804 20.5200144,20.8642972 19.4516412,21.2663158 C18.7222784,21.5303846 17.9509752,21.6668793 17.1731077,21.6695395 C15.8885654,21.6695395 15.5062611,21.7442105 12.2337366,21.7442105 C8.96121205,21.7442105 8.57890778,21.7442105 7.29436544,21.6695395 C6.51649795,21.6668793 5.74519475,21.5303846 5.015832,21.2663158 C3.94957952,20.8611182 3.10633185,20.0376094 2.69142205,18.9963158 C2.42102377,18.284026 2.28125742,17.5307775 2.27853344,16.7711184 C2.27853344,15.5166447 2.20207258,15.1432895 2.20207258,11.9473684 C2.20207258,8.75144737 2.20207258,8.37809211 2.27853344,7.12361842 C2.28125742,6.36395931 2.42102377,5.61071083 2.69142205,4.89842105 C3.10633185,3.85712749 3.94957952,3.03361862 5.015832,2.62842105 C5.74519475,2.36435228 6.51649795,2.22785759 7.29436544,2.22519737 C8.57890778,2.22519737 8.96121205,2.15052632 12.2337366,2.15052632 L12.2337366,2.15052632 Z M12.2337366,0 C8.91533553,0 8.48715475,0 7.18732024,0.0746710526 C6.17350655,0.0933319204 5.17031987,0.280182687 4.22063912,0.627236842 C2.56723299,1.23304482 1.26259985,2.50713903 0.642271171,4.12184211 C0.286898425,5.04929266 0.0955690064,6.02899668 0.0764608536,7.01907895 C0,8.28848684 0,8.70664474 0,11.9473684 C0,15.1880921 0,15.60625 0.0764608536,16.8756579 C0.0955690064,17.8657402 0.286898425,18.8454442 0.642271171,19.7728947 C1.26259985,21.3875978 2.56723299,22.661692 4.22063912,23.2675 C5.16572659,23.6400906 6.16906014,23.8522225 7.18732024,23.8947368 C8.50244692,23.8947368 8.91533553,23.8947368 12.2337366,23.8947368 C15.5521376,23.8947368 15.9803184,23.8947368 17.2801529,23.8200658 C18.2939666,23.8014049 19.2971533,23.6145542 20.246834,23.2675 C21.8852081,22.6390881 23.1817276,21.3729177 23.825202,19.7728947 C24.2067232,18.8499299 24.4239398,17.8700825 24.4674732,16.8756579 C24.4674732,15.60625 24.543934,15.1880921 24.543934,11.9473684 C24.543934,8.70664474 24.4674732,8.28848684 24.4674732,7.01907895 C24.448365,6.02899668 24.2570356,5.04929266 23.9016628,4.12184211 C23.2645035,2.49157045 21.929278,1.21487971 20.246834,0.627236842 C19.2971533,0.280182687 18.2939666,0.0933319204 17.2801529,0.0746710526 C15.9803184,0 15.5521376,0 12.2337366,0 Z" id="Shape"></path>
                <path d="M12.2337366,5.80940789 C8.76258155,5.80940789 5.94865441,8.55746643 5.94865441,11.9473684 C5.94865441,15.3372704 8.76258155,18.0853289 12.2337366,18.0853289 C15.7048916,18.0853289 18.5188188,15.3372704 18.5188188,11.9473684 L18.5188188,11.9473684 C18.5188188,10.3194801 17.8566424,8.7582658 16.6779608,7.60717491 C15.4992793,6.45608402 13.900644,5.80940789 12.2337366,5.80940789 Z M12.2337366,15.9348026 C9.97875265,15.9348026 8.150727,14.1495675 8.150727,11.9473684 C8.150727,9.74516932 9.97875265,7.95993421 12.2337366,7.95993421 C14.4887205,7.95993421 16.3167462,9.74516932 16.3167462,11.9473684 C16.3083606,14.1461665 14.4852379,15.9266134 12.2337366,15.9348026 Z" id="Shape"></path>
                <ellipse id="Oval" cx="18.7634935" cy="5.57046053" rx="1.46804839" ry="1.43368421"></ellipse>
            </g>
        </g>
    </g>
</svg>